<?xml version="1.0" encoding="utf-8"?>
<!-- Generator: Adobe Illustrator 16.0.0, SVG Export Plug-In . SVG Version: 6.00 Build 0)  -->
<!DOCTYPE svg PUBLIC "-//W3C//DTD SVG 1.1//EN" "http://www.w3.org/Graphics/SVG/1.1/DTD/svg11.dtd">
<svg version="1.1" id="Layer_1" xmlns="http://www.w3.org/2000/svg" xmlns:xlink="http://www.w3.org/1999/xlink" x="0px" y="0px"
	 width="200px" height="40.32px" viewBox="0 0 200 40.32" enable-background="new 0 0 200 40.32" xml:space="preserve">
<g>
	<g>
		<path fill="#E54242" d="M30.645,8.769c-3.949-2.088-7.491-6.032-8.641-7.407c-0.258-0.309-0.637-0.483-1.038-0.483
			c-0.402,0-0.781,0.174-1.039,0.483c-1.151,1.375-4.692,5.319-8.642,7.407c-3.843,2.032-8.56,2.305-10.254,2.333
			c-0.359,0.006-0.645,0.3-0.645,0.66v17.531c0,0.373,0.306,0.672,0.677,0.658c1.949-0.064,7.704-0.498,12.062-3.283
			c4.316-2.758,6.462-5.664,7.065-6.602c0.122-0.189,0.329-0.299,0.552-0.299h0.445c0.225,0,0.431,0.11,0.552,0.299
			c0.604,0.938,2.751,3.844,7.065,6.602c4.359,2.785,10.114,3.219,12.062,3.283c0.373,0.014,0.678-0.285,0.678-0.658V11.762
			c0-0.359-0.285-0.654-0.644-0.66C39.205,11.074,34.489,10.801,30.645,8.769"/>
	</g>
	<g>
		<path fill="#E54242" d="M4.875,35.395C8.27,35.047,17.164,34.4,20.264,24.328c0.119-0.383,0.171-0.787,0.171-1.189v-0.561
			c0-0.465-0.606-0.645-0.855-0.252c-1.772,2.793-6.39,8.492-14.702,8.791c-0.699,0.025-1.251,0.596-1.23,1.295
			c0.028,0.924-0.031,0.922-0.036,1.83C3.607,34.926,4.197,35.465,4.875,35.395"/>
	</g>
	<g>
		<path fill="#E54242" d="M36.947,35.395c-3.394-0.348-12.289-0.994-15.389-11.066c-0.119-0.383-0.171-0.787-0.171-1.189v-0.561
			c0-0.465,0.606-0.645,0.855-0.252c1.772,2.793,6.389,8.492,14.702,8.791c0.698,0.025,1.25,0.596,1.23,1.295
			c-0.027,0.924,0.031,0.922,0.036,1.83C38.214,34.926,37.626,35.465,36.947,35.395"/>
	</g>
	<g>
		<path fill="#E54242" d="M9.536,39.438c2.2-0.227,9.688-2.561,10.771-10.125c0.037-0.258,0.111-0.51,0.111-0.771v-0.363
			c0-0.301-0.38-0.41-0.555-0.164c-1.278,1.814-2.577,6.672-10.347,8.113c-0.446,0.082-0.812,0.385-0.798,0.838
			c0.018,0.6,0.002,1.137-0.001,1.727C8.715,39.133,9.097,39.482,9.536,39.438"/>
	</g>
	<g>
		<path fill="#E54242" d="M32.109,39.438c-2.2-0.227-9.688-2.561-10.771-10.125c-0.037-0.258-0.111-0.51-0.111-0.771v-0.363
			c0-0.301,0.38-0.41,0.555-0.164c1.278,1.814,2.577,6.672,10.347,8.113c0.446,0.082,0.811,0.385,0.798,0.838
			c-0.019,0.6-0.002,1.137,0.001,1.727C32.93,39.133,32.548,39.482,32.109,39.438"/>
	</g>
	<g>
		<path fill="#E54242" d="M53.883,29.164V12.526c0-0.513,0.48-0.77,1.441-0.77h0.674c0.962,0,1.443,0.256,1.443,0.77v9.521
			l0.096,0.023l2.909-4.351c0.208-0.305,0.698-0.458,1.467-0.458h0.891c0.897,0,1.346,0.121,1.346,0.362
			c0,0.127-0.072,0.287-0.216,0.48l-3.342,4.759l3.919,6.203c0.128,0.225,0.192,0.393,0.192,0.504c0,0.24-0.457,0.361-1.371,0.361
			h-1.01c-0.786,0-1.266-0.152-1.443-0.457l-3.342-5.529l-0.096,0.023v5.193c0,0.514-0.481,0.77-1.443,0.77h-0.674
			C54.363,29.932,53.883,29.678,53.883,29.164"/>
	</g>
	<g>
		<path fill="#E54242" d="M65.833,29.164v-7.621c0-1.203-0.047-2.044-0.144-2.525c-0.097-0.48-0.145-0.77-0.145-0.866
			c0-0.255,0.325-0.448,0.974-0.577c0.649-0.127,1.134-0.192,1.454-0.192c0.321,0,0.534,0.032,0.638,0.096
			c0.104,0.064,0.188,0.164,0.252,0.3c0.063,0.136,0.112,0.249,0.144,0.336c0.032,0.089,0.068,0.237,0.108,0.444
			c0.041,0.209,0.068,0.337,0.084,0.385c0.385-0.512,0.897-0.945,1.539-1.299c0.641-0.352,1.323-0.528,2.044-0.528
			c1.203,0,2.093,0.316,2.669,0.949s0.865,1.615,0.865,2.946v8.15c0,0.512-0.481,0.768-1.442,0.768H74.2
			c-0.961,0-1.442-0.256-1.442-0.768v-7.621c0-0.994-0.481-1.492-1.443-1.492c-0.801,0-1.443,0.467-1.923,1.395v7.719
			c0,0.512-0.48,0.768-1.443,0.768h-0.674C66.313,29.932,65.833,29.678,65.833,29.164"/>
	</g>
	<g>
		<path fill="#E54242" d="M79.754,28.406c-0.994-1.115-1.491-2.721-1.491-4.82s0.497-3.703,1.491-4.809
			c0.994-1.106,2.444-1.659,4.352-1.659c1.907,0,3.354,0.553,4.34,1.659c0.986,1.106,1.479,2.709,1.479,4.809
			s-0.493,3.705-1.479,4.82c-0.986,1.113-2.433,1.672-4.34,1.672C82.198,30.078,80.749,29.52,79.754,28.406 M81.87,23.598
			c0,2.445,0.74,3.666,2.224,3.666c1.482,0,2.224-1.221,2.224-3.666c0-2.443-0.741-3.666-2.224-3.666
			C82.61,19.932,81.87,21.154,81.87,23.598"/>
	</g>
	<g>
		<path fill="#E54242" d="M90.885,17.887c0-0.416,0.497-0.625,1.491-0.625h0.577c0.785,0,1.226,0.168,1.322,0.504l1.9,7.405
			l1.826-7.405c0.065-0.336,0.505-0.504,1.323-0.504h0.577c0.818,0,1.259,0.168,1.323,0.504l1.778,7.405l1.948-7.405
			c0.097-0.336,0.537-0.504,1.322-0.504h0.097c0.993,0,1.49,0.209,1.49,0.625c0,0.048-0.016,0.168-0.049,0.361l-2.836,11.18
			c-0.096,0.336-0.538,0.504-1.323,0.504h-1.178c-0.785,0-1.227-0.168-1.322-0.504l-1.731-6.756l-1.636,6.756
			c-0.08,0.336-0.521,0.504-1.322,0.504h-1.178c-0.786,0-1.227-0.168-1.323-0.504l-3.029-11.18
			C90.902,18.151,90.885,18.031,90.885,17.887"/>
	</g>
	<g>
		<path fill="#E54242" d="M113.872,27.264l0.649-0.096c0.208,0,0.385,0.236,0.528,0.709s0.217,0.814,0.217,1.021
			c0,0.785-0.77,1.18-2.309,1.18c-2.341,0-3.511-1.299-3.511-3.896V12.524c0-0.513,0.481-0.769,1.442-0.769h0.674
			c0.962,0,1.442,0.256,1.442,0.769v13.704C113.006,26.92,113.295,27.264,113.872,27.264"/>
	</g>
	<g>
		<path fill="#E54242" d="M117.153,28.383c-1.034-1.131-1.551-2.762-1.551-4.895c0-2.131,0.517-3.726,1.551-4.784
			c1.034-1.058,2.452-1.586,4.256-1.586c1.803,0,3.125,0.577,3.967,1.731c0.842,1.155,1.263,2.646,1.263,4.474
			c0,0.191-0.164,0.477-0.492,0.852c-0.329,0.379-0.573,0.566-0.734,0.566h-6.131c0.08,0.914,0.353,1.563,0.817,1.947
			s1.058,0.576,1.779,0.576s1.41-0.123,2.068-0.373c0.657-0.248,0.993-0.371,1.009-0.371c0.241,0,0.509,0.236,0.807,0.707
			c0.296,0.473,0.444,0.846,0.444,1.119c0,0.527-0.501,0.949-1.503,1.262s-1.944,0.469-2.825,0.469
			C119.762,30.078,118.188,29.512,117.153,28.383 M123.177,22.359c0-0.738-0.143-1.326-0.433-1.765
			c-0.288-0.441-0.722-0.663-1.298-0.663c-1.187,0-1.908,0.809-2.164,2.428H123.177z"/>
	</g>
	<g>
		<path fill="#E54242" d="M132.578,30.078c-1.331,0-2.413-0.574-3.246-1.719c-0.834-1.146-1.25-2.727-1.25-4.738
			c0-2.01,0.444-3.598,1.334-4.759c0.89-1.163,2.136-1.744,3.739-1.744c0.945,0,1.763,0.249,2.451,0.746v-5.338
			c0-0.513,0.481-0.769,1.444-0.769h0.673c0.961,0,1.441,0.256,1.441,0.769v13.128c0,0.994,0.049,1.826,0.146,2.5l0.145,0.986
			c0,0.254-0.325,0.447-0.975,0.576s-1.134,0.193-1.455,0.193s-0.532-0.033-0.637-0.098c-0.105-0.063-0.188-0.168-0.252-0.313
			c-0.064-0.143-0.112-0.264-0.145-0.359c-0.032-0.098-0.067-0.254-0.108-0.469c-0.04-0.217-0.068-0.35-0.084-0.398
			c-0.288,0.529-0.718,0.963-1.286,1.299C133.944,29.908,133.299,30.078,132.578,30.078 M133.636,27.168
			c0.77,0,1.427-0.473,1.971-1.42v-5.361c-0.544-0.304-1.105-0.456-1.683-0.456c-1.49,0-2.235,1.206-2.235,3.618
			S132.337,27.168,133.636,27.168"/>
	</g>
	<g>
		<path fill="#E54242" d="M140.751,31.664c0-1.299,0.73-2.229,2.188-2.789l0.025-0.096c-0.689-0.352-1.033-0.945-1.033-1.779
			s0.48-1.508,1.441-2.02c-1.297-0.721-1.947-1.863-1.947-3.426c0-1.563,0.477-2.693,1.432-3.391
			c0.953-0.697,2.199-1.045,3.738-1.045c0.625,0,1.242,0.064,1.852,0.192h3.871c0.48,0,0.721,0.401,0.721,1.202v0.409
			c0,0.754-0.197,1.13-0.59,1.13s-0.732-0.032-1.021-0.097l-0.047,0.097c0.256,0.335,0.383,0.785,0.383,1.347
			c0,1.426-0.451,2.492-1.357,3.197c-0.906,0.707-2.088,1.059-3.545,1.059c-0.979,0-1.469,0.215-1.469,0.648
			c0,0.465,0.635,0.752,1.9,0.865c1.266,0.111,2.436,0.377,3.51,0.793c0.529,0.209,0.975,0.564,1.336,1.07
			c0.359,0.504,0.539,1.125,0.539,1.863c0,1.234-0.568,2.225-1.707,2.969c-1.139,0.746-2.635,1.119-4.494,1.119
			C142.659,34.982,140.751,33.877,140.751,31.664 M144.214,31.086c0,0.723,0.834,1.084,2.502,1.084c1.666,0,2.5-0.395,2.5-1.18
			c0-0.369-0.27-0.637-0.807-0.805s-1.502-0.301-2.896-0.398C144.647,30.094,144.214,30.525,144.214,31.086 M145.296,22.66
			c0.338,0.281,0.77,0.42,1.299,0.42s0.961-0.139,1.299-0.42c0.336-0.281,0.504-0.705,0.504-1.275c0-0.568-0.168-0.992-0.504-1.273
			c-0.338-0.28-0.77-0.421-1.299-0.421s-0.961,0.141-1.299,0.421c-0.336,0.281-0.504,0.705-0.504,1.273
			C144.792,21.955,144.96,22.379,145.296,22.66"/>
	</g>
	<g>
		<path fill="#E54242" d="M155.384,28.383c-1.035-1.131-1.553-2.762-1.553-4.895c0-2.131,0.518-3.726,1.553-4.784
			c1.033-1.058,2.451-1.586,4.254-1.586c1.805,0,3.127,0.577,3.969,1.731c0.842,1.155,1.262,2.646,1.262,4.474
			c0,0.191-0.164,0.477-0.492,0.852c-0.33,0.379-0.574,0.566-0.732,0.566h-6.133c0.08,0.914,0.352,1.563,0.816,1.947
			s1.059,0.576,1.779,0.576c0.723,0,1.412-0.123,2.068-0.373c0.658-0.248,0.994-0.371,1.01-0.371c0.242,0,0.51,0.236,0.807,0.707
			c0.297,0.473,0.443,0.846,0.443,1.119c0,0.527-0.5,0.949-1.502,1.262s-1.943,0.469-2.826,0.469
			C157.991,30.078,156.417,29.512,155.384,28.383 M161.407,22.359c0-0.738-0.145-1.326-0.434-1.765
			c-0.289-0.441-0.723-0.663-1.299-0.663c-1.186,0-1.908,0.809-2.164,2.428H161.407z"/>
	</g>
	<g>
		<path fill="#E54242" d="M166.888,29.164V12.526c0-0.513,0.48-0.77,1.443-0.77h0.674c0.961,0,1.441,0.256,1.441,0.77v6.228
			c0.914-1.09,2.043-1.635,3.391-1.635c2.42,0,3.631,1.298,3.631,3.895v8.15c0,0.514-0.48,0.768-1.443,0.768h-0.672
			c-0.963,0-1.443-0.256-1.443-0.768v-7.621c0-0.994-0.514-1.492-1.539-1.492c-0.803,0-1.443,0.467-1.924,1.395v7.719
			c0,0.514-0.48,0.768-1.441,0.768h-0.674C167.368,29.932,166.888,29.678,166.888,29.164"/>
	</g>
	<g>
		<path fill="#E54242" d="M179.823,26.184v-8.151c0-0.513,0.48-0.77,1.443-0.77h0.672c0.961,0,1.443,0.257,1.443,0.77v7.622
			c0,0.992,0.48,1.49,1.441,1.49c0.803,0,1.443-0.465,1.924-1.395v-7.718c0-0.513,0.48-0.77,1.443-0.77h0.674
			c0.961,0,1.441,0.257,1.441,0.77v7.622c0,0.992,0.049,1.826,0.145,2.5l0.145,0.986c0,0.254-0.324,0.447-0.975,0.576
			c-0.648,0.129-1.135,0.193-1.453,0.193c-0.322,0-0.535-0.033-0.639-0.098c-0.104-0.063-0.188-0.17-0.252-0.324
			c-0.064-0.152-0.113-0.271-0.145-0.361c-0.033-0.088-0.068-0.244-0.109-0.469c-0.039-0.225-0.066-0.359-0.084-0.406
			c-0.383,0.512-0.893,0.945-1.525,1.297c-0.633,0.354-1.318,0.529-2.057,0.529c-1.201,0-2.09-0.316-2.668-0.951
			C180.112,28.494,179.823,27.514,179.823,26.184"/>
	</g>
	<g>
		<path fill="#E54242" d="M197.591,27.264l0.65-0.096c0.207,0,0.385,0.236,0.529,0.709c0.143,0.473,0.215,0.814,0.215,1.021
			c0,0.785-0.768,1.18-2.309,1.18c-2.34,0-3.51-1.299-3.51-3.896v-6.058h-0.385c-0.48,0-0.721-0.401-0.721-1.202v-0.409
			c0-0.801,0.24-1.202,0.721-1.202h0.385l0.313-2.285c0.08-0.512,0.512-0.769,1.299-0.769h0.744c0.803,0,1.203,0.256,1.203,0.769
			v2.285h1.178c0.48,0,0.723,0.401,0.723,1.202v0.409c0,0.801-0.242,1.202-0.723,1.202h-1.178v6.105
			C196.726,26.92,197.015,27.264,197.591,27.264"/>
	</g>
</g>
</svg>
